<?xml version="1.0" standalone="no"?>
<!DOCTYPE svg PUBLIC "-//W3C//DTD SVG 1.1//EN" "http://www.w3.org/Graphics/SVG/1.1/DTD/svg11.dtd" >
<!--
2013-9-30: Created.
-->
<svg>
<metadata>
Created by iconfont
</metadata>
<defs>

<font id="iconfont" horiz-adv-x="1024" >
  <font-face
    font-family="iconfont"
    font-weight="500"
    font-stretch="normal"
    units-per-em="1024"
    ascent="896"
    descent="-128"
  />
    <missing-glyph />
    
    <glyph glyph-name="dizhi" unicode="&#58979;" d="M746.308413 289.899334a310.624639 310.624639 0 1 1-468.616826 0l2.479878-3.119846L512-8.005934l231.988527 294.785422 2.479878 3.119846zM109.859887 493.80925a402.140113 402.140113 0 1 0 706.52506-262.787005L547.99822-110.480866a45.757737 45.757737 0 0 0-71.99644 0L208.015033 231.022245a400.620188 400.620188 0 0 0-98.155146 262.787005zM512 325.017597a168.791653 168.791653 0 1 0 168.791653 168.791653A168.791653 168.791653 0 0 0 512 325.017597z m0 91.59547a77.196182 77.196182 0 1 1-77.196182 77.196183A77.196182 77.196182 0 0 1 512 416.613067z m0 0"  horiz-adv-x="1024" />

    
    <glyph glyph-name="bianji" unicode="&#58980;" d="M37.50096-123.6a42.72 42.72 0 0 0 0 84.8h949.28a42.72 42.72 0 0 0 0-84.8zM819.34096 872l95.6-96a67.92 67.92 0 0 0 0-96l-606.24-603.52a67.76 67.76 0 0 0-48-19.68H134.46096a33.84 33.84 0 0 0-33.92 33.92V220.24a67.92 67.92 0 0 0 19.68 48L723.66096 872a67.84 67.84 0 0 0 96 0zM185.34096 213.44v-72h72L843.74096 728l-72 72.56z m0 0"  horiz-adv-x="1024" />

    
    <glyph glyph-name="dianhua" unicode="&#58981;" d="M755.197625-127.99h-20.239802c-202.398023 20.239802-379.516294 121.438814-510.955011 278.317282C97.28405 307.20575 36.564643 504.563823 61.924395 707.041845A207.517973 207.517973 0 0 0 294.722122 894.240017a63.999375 63.999375 0 0 1 30.319704-5.039951C426.240837 864.000312 492.080195 768.00125 481.920294 661.442291 472.000391 570.40318 411.040986 499.523872 330.081777 479.284069a526.31486 526.31486 0 0 1 242.957627-298.557084A209.437955 209.437955 0 0 0 967.995547 94.647826v-35.359655a218.957862 218.957862 0 0 0-75.919259-141.758616A222.23783 222.23783 0 0 0 755.197625-127.99zM269.36237 818.320759c-70.799309 0-126.478765-50.559506-136.638666-121.438814C112.483902 514.723723 168.003359 337.605453 279.52227 195.926837s278.317282-227.757776 460.475503-247.997578a127.99875 127.99875 0 0 1 101.199012 30.319703 138.878644 138.878644 0 0 1 50.639506 91.119111v20.239802c-5.039951 65.839357-55.999453 121.438814-121.438814 126.558764A141.678616 141.678616 0 0 1 623.998906 114.887628a50.239509 50.239509 0 0 0-20.239802-25.279753 31.999688 31.999688 0 0 0-30.319704 0 590.234236 590.234236 0 0 0-329.356784 404.876046 63.999375 63.999375 0 0 0 5.039951 30.319704 27.759729 27.759729 0 0 0 25.279753 15.199852c65.839357 5.039951 121.518813 55.999453 126.558764 121.438814A141.678616 141.678616 0 0 1 299.762073 808.000859c-5.039951 0-15.199852 5.039951-20.239803 5.039951 0 5.039951-5.11995 5.039951-10.1599 5.039951z m0 0"  horiz-adv-x="1024" />

    
    <glyph glyph-name="dianzan" unicode="&#58982;" d="M298.931666 480.935994v-520.698835h477.793315c25.807231 0 41.946737 5.513 51.774259 14.621435a37.152825 37.152825 0 0 1 10.706405 20.374129l0.479391 2.636652L931.967859 400.078664v0.719087a65.916302 65.916302 0 0 1-10.46671 59.124925c-9.507927 11.665188-31.959419 21.173115-59.524418 21.173115H545.17899l71.908693 130.554227a403.008274 403.008274 0 0 1 23.969564 52.972737 682.972785 682.972785 0 0 1 28.04439 98.674706v1.597971a78.779968 78.779968 0 0 1-9.507927 15.97971A81.896011 81.896011 0 0 1 593.677408 807.561256a49.457201 49.457201 0 0 1-37.632215-12.863666c-7.989855-7.989855-14.701333-17.817376-25.567536-39.230187l-5.592898-11.105898-5.353203-5.752695-1.438174-2.476855c-1.757768-3.116043-7.989855-14.86113-10.067217-18.616362C482.778224 674.849769 471.432631 655.754016 455.452921 631.784452a577.746397 577.746397 0 0 0-63.918838-82.375403 320.71277 320.71277 0 0 0-92.282822-68.473055zM210.963366 456.007647c-9.587826-0.958783-19.415347-1.438174-29.402666-1.438174H96.628544c-6.551681 0-8.629043-2.077362-8.629043-8.78884V-31.373493c0-6.232087 2.077362-7.989855 8.629043-7.989855H210.963366z m483.466111 112.656952h167.78695c53.132534 0 101.23146-20.533927 128.317067-54.251114a153.644907 153.644907 0 0 0 27.085608-135.188342l-91.483837-398.693752a126.319604 126.319604 0 0 0-36.833231-69.591635c-27.085608-25.647434-64.957519-38.910593-112.497155-38.910593H96.628544A94.280286 94.280286 0 0 0 0.0312-31.373493V446.020329a94.360185 94.360185 0 0 0 96.597344 96.757141h84.932156c121.685488 0 184.565645 106.984155 250.561845 219.561209a226.11289 226.11289 0 0 0 19.894739 33.317694C469.914558 830.971531 503.39205 895.92905 593.677408 895.92905a169.225124 169.225124 0 0 0 134.948647-60.882693c17.417883-23.969564 34.276477-52.25365 27.165506-89.086881a822.95504 822.95504 0 0 0-23.969564-89.08688z m0 0"  horiz-adv-x="1024" />

    
    <glyph glyph-name="guanzhu" unicode="&#58983;" d="M878.56 413.12a201.6 201.6 0 0 1-285.12 285.12L512 616.72 430.56 698.24a201.6 201.6 0 0 1-285.12-285.12L512 46.56zM491.6 759.28L512 738.96l20.32 20.32A288 288 0 0 0 939.68 352L512-75.68 84.32 352a288 288 0 0 0 407.28 407.2z m0 0"  horiz-adv-x="1024" />

    
    <glyph glyph-name="guanzhu2" unicode="&#58984;" d="M939.68 759.28a288 288 0 0 1-407.36 0L512 738.96l-20.4 20.32A288 288 0 0 1 84.32 352L512-75.68 939.68 352a288 288 0 0 1 0 407.28z"  horiz-adv-x="1024" />

    
    <glyph glyph-name="dingdan" unicode="&#58985;" d="M633.84 896H389.92A56 56 0 0 1 336 837.76a56 56 0 0 1 53.84-58.32h245.52C664 779.44 688 805.52 688 837.76A56 56 0 0 1 633.84 896z m141.44-58.48c0-75.84-13.92-117.04-88-117.04H336.48c-73.52 0-88 54.16-88 117.04h-116.8a85.36 85.36 0 0 1-88-88V-40c0-58 31.52-88 88-88h760.64c46.88 0 88 28.56 88 88V749.68c0 57.12-32.64 88-88 88z m-28.64-731.36H283.2a36.88 36.88 0 0 0-34.08 32c0 14.24 14.4 26.48 31.52 26.48h462.08a31.2 31.2 0 0 0 32.8-26.48c0-14.32-11.84-32-28.88-32z m-6.16 205.04h-464A29.04 29.04 0 0 0 248 340.88a31.44 31.44 0 0 0 32 28.64h462.72A32.96 32.96 0 0 0 776 340.88c0-14.32-18.08-29.68-35.12-29.68z m0 204.72h-464A29.04 29.04 0 0 0 248 545.6a31.44 31.44 0 0 0 32 28.64h462.72A32.96 32.96 0 0 0 776 545.6c0-14.32-18.08-29.68-35.12-29.68z m0 0"  horiz-adv-x="1024" />

    
    <glyph glyph-name="jia" unicode="&#58986;" d="M597.36 469.36V896H426.64v-426.64H0v-170.72h426.64V-128h170.72V298.64H1024V469.36z m0 0"  horiz-adv-x="1024" />

    
    <glyph glyph-name="jian" unicode="&#58987;" d="M604.88 469.44H0v-170.64h1024V469.44z m0 0"  horiz-adv-x="1024" />

    
    <glyph glyph-name="erweima" unicode="&#58988;" d="M916.399968 335.119964a78.239994 78.239994 0 0 0 78.239994-78.319994v-306.559976a78.239994 78.239994 0 0 0-78.239994-78.239994H639.19999a78.319994 78.319994 0 0 0-78.319994 78.239994V256.79997a78.319994 78.319994 0 0 0 78.319994 78.319994zM78.240034 162.239977a48.959996 48.959996 0 0 0 48.959996-48.879996v-182.639986a48.959996 48.959996 0 1 0-97.839992 0V113.359981a48.959996 48.959996 0 0 0 48.879996 48.879996z m339.199973 0a48.879996 48.879996 0 0 0 48.879997-48.879996v-182.639986a48.959996 48.959996 0 1 0-97.839993 0V113.359981a48.959996 48.959996 0 0 0 48.959996 48.879996zM248.000021 119.999981a48.959996 48.959996 0 0 0 48.959996-48.879997v-97.839992a48.959996 48.959996 0 1 0-97.839993 0v97.679992A48.879996 48.879996 0 0 0 248.000021 119.999981z m648.799949 117.27999H658.719989v-267.439979h238.079981zM417.440007 335.119964a48.959996 48.959996 0 0 0 0-97.839993H78.240034a48.959996 48.959996 0 0 0 0 97.839993zM384.80001 895.99992a78.239994 78.239994 0 0 0 78.319994-78.239994V511.19995a78.319994 78.319994 0 0 0-78.319994-78.319994H107.600032a78.239994 78.239994 0 0 0-78.239994 78.319994V817.759926A78.239994 78.239994 0 0 0 107.600032 895.99992z m531.599958 0a78.239994 78.239994 0 0 0 78.239994-78.239994V511.19995a78.239994 78.239994 0 0 0-78.239994-78.319994H639.19999a78.319994 78.319994 0 0 0-78.319994 78.319994V817.759926A78.319994 78.319994 0 0 0 639.19999 895.99992zM365.280011 798.159928H127.20003v-267.439979h238.079981z m531.519959 0H658.719989v-267.439979h238.079981z m0 0"  horiz-adv-x="1024" />

    
    <glyph glyph-name="kefu" unicode="&#58989;" d="M516.8 88.72a149.84 149.84 0 0 1 16 0.88 131.52 131.52 0 0 1 109.52 87.44 7.28 7.28 0 0 1-4.08 8.88 8 8 0 0 1-9.6-2.96s-20.32-32-98.8-42a253.76 253.76 0 0 0-34.08-2.4c-54.96 0-79.52 20.08-80 20.32a8 8 0 0 1-9.84 0 7.28 7.28 0 0 1-1.52-9.44 133.84 133.84 0 0 1 112-60.8z m422.16 470.32h-2c-46 192.4-221.76 336-432.48 336-216.48 0-396.4-151.52-436.24-352A81.44 81.44 0 0 1 0 463.52V304a81.84 81.84 0 0 1 82.8-80.72 82.96 82.96 0 0 1 64 29.84A377.52 377.52 0 0 1 352 44.24a39.28 39.28 0 0 0 4.24 6.48c1.44 1.84 3.12 3.44 4.48 3.44a8 8 0 0 0 4-1.28c-21.76 16-100.64 96-117.76 209.12A97.84 97.84 0 0 0 322.72 368c72 12.88 143.36 27.6 215.2 40a123.44 123.44 0 0 1 96 72.64 181.92 181.92 0 0 1 13.92 56 8.8 8.8 0 0 0 8.72 7.2 8.96 8.96 0 0 0 7.12-3.6l2 1.28c28.32-40 84.48-128 92.56-220.64 9.2-106.16 4.08-178.8-80-253.12a6.4 6.4 0 0 1 0.88-10.32l2-0.88a6.88 6.88 0 0 1 1.68 0 4.72 4.72 0 0 1 1.6 0l3.52 1.84a374.64 374.64 0 0 1 180.24 211.76 85.36 85.36 0 0 1 53.52-34.56c-35.52-155.6-179.84-253.52-358.56-268.4a73.2 73.2 0 0 1-68.16 43.92 69.2 69.2 0 1 1 0-138.16 72.56 72.56 0 0 1 69.52 48c206.88 16 372.8 135.12 407.44 320a81.84 81.84 0 0 1 52.08 75.2V477.36a83.44 83.44 0 0 1-85.04 81.68z m-76.32-46.32A381.84 381.84 0 0 1 504 755.04a382 382 0 0 1-357.44-240.56 84 84 0 0 1-8.96 8.72C168.48 694.32 320.8 824 504.48 824s334.64-128.8 366.48-298.72a84.96 84.96 0 0 1-8-12.96zM352 44.24z m0 0"  horiz-adv-x="1024" />

    
    <glyph glyph-name="fenlei" unicode="&#58990;" d="M315.04 344.64H157.52A158 158 0 0 1 0 187.04v-157.52A158 158 0 0 1 157.52-128h157.52a158 158 0 0 1 157.6 157.52V187.04a158 158 0 0 1-157.6 157.6z m78.8-315.12a78.96 78.96 0 0 0-78.8-78.72H157.52a78.96 78.96 0 0 0-78.72 78.72V187.04a78.96 78.96 0 0 0 78.72 78.8h157.52a79.04 79.04 0 0 0 78.8-78.8zM866.48 896H708.96a158 158 0 0 1-157.6-157.52v-157.52a158 158 0 0 1 157.6-157.6h157.52A158 158 0 0 1 1024 580.96V738.48A158 158 0 0 1 866.48 896z m78.72-315.04a78.96 78.96 0 0 0-78.72-78.8H708.96a79.04 79.04 0 0 0-78.8 78.8V738.48a78.96 78.96 0 0 0 78.8 78.72h157.52a78.96 78.96 0 0 0 78.72-78.72z m-78.72-236.32H708.96a158 158 0 0 1-157.6-157.6v-157.52A158 158 0 0 1 708.96-128h157.52A158 158 0 0 1 1024 29.52V187.04a158 158 0 0 1-157.52 157.6z m78.72-315.12a78.96 78.96 0 0 0-78.72-78.72H708.96a78.96 78.96 0 0 0-78.8 78.72V187.04a79.04 79.04 0 0 0 78.8 78.8h157.52a78.96 78.96 0 0 0 78.72-78.8zM315.04 896H157.52A158 158 0 0 1 0 738.48v-157.52a158 158 0 0 1 157.52-157.6h157.52a158 158 0 0 1 157.6 157.6V738.48A158 158 0 0 1 315.04 896z m78.8-315.04a79.04 79.04 0 0 0-78.8-78.8H157.52a78.96 78.96 0 0 0-78.72 78.8V738.48a78.96 78.96 0 0 0 78.72 78.72h157.52a78.96 78.96 0 0 0 78.8-78.72z m0 0"  horiz-adv-x="1024" />

    
    <glyph glyph-name="gouwuche" unicode="&#58991;" d="M896.00704 144H324.96704a90.24 90.24 0 0 0-88 82.8l-40 377.76a95.52 95.52 0 0 0 22.48 72.56 86.64 86.64 0 0 0 65.44 30.4H936.00704a86.88 86.88 0 0 0 64.4-32 96 96 0 0 0 22.48-72.64l-40-376.48A90 90 0 0 0 896.00704 144zM285.44704 630.08a12.88 12.88 0 0 1-9.76-4.72 16 16 0 0 1-3.68-12.16l40-378a14.08 14.08 0 0 1 13.28-13.28H896.00704a14 14 0 0 1 13.52 13.28l40 378a16.72 16.72 0 0 1-3.76 12.16 12.72 12.72 0 0 1-9.68 4.72zM254.00704 387.2a38 38 0 0 0-37.2 34.32l-44.72 384.48a14.16 14.16 0 0 1-13.28 12.16H37.44704A38.24 38.24 0 0 0 0.00704 857.12 38.24 38.24 0 0 0 37.44704 896h121.36a90 90 0 0 0 87.44-80l44.96-385.92a40 40 0 0 0-8-28.72 36.96 36.96 0 0 0-25.04-14.64z m142.32-333.6a51.92 51.92 0 1 0-49.92-51.92 50.96 50.96 0 0 0 49.92 51.92z m0 77.84c-68.88 0-124.8-58.08-124.8-129.68s56-129.76 124.8-129.76 124.88 58.08 124.88 129.68a132.16 132.16 0 0 1-36.56 91.76 122.4 122.4 0 0 1-88 38z m424.64-77.84a49.92 49.92 0 0 0 46.08-32 53.2 53.2 0 0 0-10.8-56.56 48.56 48.56 0 0 0-54.4-11.28 52.08 52.08 0 0 0-30.88 48 50.96 50.96 0 0 0 50 51.92z m0 77.84C752.00704 131.44 696.00704 73.36 696.00704 1.76S752.00704-128 820.96704-128s124.88 58.08 124.88 129.68a132.24 132.24 0 0 1-36.64 91.76 122.24 122.24 0 0 1-88 38z m0 0"  horiz-adv-x="1024" />

    
    <glyph glyph-name="gengduo" unicode="&#58992;" d="M445.12 874.88a71.52 71.52 0 0 1 0-96.48l386-385.92-386-385.92a71.36 71.36 0 1 1 96.48-96.48l435.2 435.12a76.4 76.4 0 0 1 26.08 47.28 72 72 0 0 1-21.28 50.16l-435.12 432a71.36 71.36 0 0 1-101.36 0z m0 0M59.2 874.88a71.36 71.36 0 0 1 0-96.48l385.92-385.92L59.2 6.56a71.36 71.36 0 1 1 96.48-96.48l440 431.28a76.16 76.16 0 0 1 21.2 51.12 71.28 71.28 0 0 1-21.2 50.16l-435.2 432a71.28 71.28 0 0 1-101.28 0z m0 0"  horiz-adv-x="1024" />

    
    <glyph glyph-name="liaotian" unicode="&#58993;" d="M353.29304-97.28h-10.24a79.28 79.28 0 0 0-56 40.96l-35.84 87.04H168.97304A170.48 170.48 0 0 0 0.01304 200V696A167.2 167.2 0 0 0 168.97304 865.28h686.08A167.2 167.2 0 0 0 1024.01304 696v-496a170.48 170.48 0 0 0-168.96-168.96H486.41304L409.61304-72c-10.24-15.36-30.72-25.6-56-25.6z m-184 885.76A91.76 91.76 0 0 1 76.81304 696v-496a91.76 91.76 0 0 1 92.16-92.48h133.12l51.2-122.88 92.16 122.88h404.48A91.76 91.76 0 0 1 942.09304 200V696a91.76 91.76 0 0 1-92.16 92.16z m0 0M179.21304 435.2a61.44 61.44 0 1 1 61.44 61.44 61.44 61.44 0 0 1-61.44-61.44z m0 0M450.57304 435.2a61.44 61.44 0 1 1 30.72 52.8 61.44 61.44 0 0 1-30.72-53.2z m0 0M721.93304 435.2a61.44 61.44 0 1 1 30.72 52.8 61.36 61.36 0 0 1-30.72-53.2z m0 0"  horiz-adv-x="1024" />

    
    <glyph glyph-name="kefu_1" unicode="&#58994;" d="M584.48-65.2a42 42 0 0 0-38.64 28.96 37.6 37.6 0 0 0 28.96 43.52c198 33.76 342.96 202.8 342.96 400.72a410.64 410.64 0 0 1-821.2 0 396.08 396.08 0 0 1 96.64-260.72c14.48-14.48 9.68-38.64-4.8-53.12s-38.64-9.6-53.12 4.88A523.04 523.04 0 0 0 28.96 412.96a483.04 483.04 0 1 0 560-478.16z m0 0M232 412.96a58 58 0 1 1 28.8 50.24 57.92 57.92 0 0 1-28.8-50.24z m0 0M454 412.96a58 58 0 1 1 29.04 50.24 58 58 0 0 1-29.04-50.24z m0 0M676.24 412.96a58 58 0 1 1 28.96 50.24 57.84 57.84 0 0 1-28.96-50.24z m0 0M502.32-128a91.76 91.76 0 1 0 0 183.52 94.96 94.96 0 0 0 91.76-91.76c4.88-48-38.64-91.76-91.76-91.76z m0 130.4a33.84 33.84 0 1 1 33.68-33.76c0 19.28-9.68 33.76-33.84 33.76z m0 0"  horiz-adv-x="1024" />

    
    <glyph glyph-name="shaixuan" unicode="&#58995;" d="M889.839911 847.999771a81.359981 81.359981 0 0 1-74.399982 47.999989H84.9601a82.319981 82.319981 0 0 1-63.119985-135.199968l257.03994-305.519929v-408.719904a95.999978 95.999978 0 0 1 58.479986-87.999979l183.999957-78.799982a68.959984 68.959984 0 0 1 28.239993-5.839998 70.239984 70.239984 0 0 1 39.279991 11.839997 71.359983 71.359983 0 0 1 31.999992 59.599986V455.279863l257.03994 305.359929a81.279981 81.279981 0 0 1 11.519998 87.999979zM528.799996 488.959855v-511.99988l-155.119964 66.079985a3.839999 3.839999 0 0 0-2.319999 3.519999v442.399896l-264.479938 314.399927h686.799839z m445.919896-417.439902h-149.839965a46.239989 46.239989 0 1 1 0-92.479978h149.839965a46.239989 46.239989 0 0 1 0 92.479978z m0 199.999953h-149.839965a46.239989 46.239989 0 1 1 0-92.479978h149.839965a46.239989 46.239989 0 0 1 0 92.479978z m0 0M778.639938 424.95987a46.399989 46.399989 0 0 1 46.239989-46.239989h149.839965a46.239989 46.239989 0 1 1 0 92.479979h-149.839965a46.239989 46.239989 0 0 1-46.239989-46.23999z m0 0"  horiz-adv-x="1024" />

    
    <glyph glyph-name="shang" unicode="&#58996;" d="M589.04 680l408-453.92a104 104 0 0 0-77.04-172.72H104A104 104 0 0 0 26.64 226.4L434.96 680a86.96 86.96 0 0 0 8 8 104 104 0 0 0 146.4-8z"  horiz-adv-x="1024" />

    
    <glyph glyph-name="shangcheng" unicode="&#58997;" d="M1019.6 543.6l-58.8 255.12A106.72 106.72 0 0 1 856 881.84H166.4A106.64 106.64 0 0 1 61.68 798L2.72 533.52l-0.48-2.56A192.48 192.48 0 0 1 0 502.72 194.64 194.64 0 0 1 88 340v-346.64a107.36 107.36 0 0 1 107.28-107.2h633.28a107.36 107.36 0 0 1 107.44 107.2V340.24a196.4 196.4 0 0 1 76.08 96 192 192 0 0 1 8 107.6z m-155.2-550.24a35.76 35.76 0 0 0-35.76-35.76H195.36a35.76 35.76 0 0 0-35.36 35.76V311.36a194.64 194.64 0 0 1 193.6 79.12 194.4 194.4 0 0 1 317.52 0 194.48 194.48 0 0 1 187.12-80l6.56 1.12v-318z m80.48 467.2a122.88 122.88 0 0 0-238.4 42.16l1.36 43.36H632.8l2.16-43.36a123.04 123.04 0 0 0-246 0l1.36 43.36h-74.96l2.16-43.36a123.04 123.04 0 0 0-246 0 120 120 0 0 0 1.28 16.64l58.72 263.04a35.52 35.52 0 0 0 34.88 28H856a35.6 35.6 0 0 0 34.8-27.76L949.76 528a122 122 0 0 0-4.88-67.84z m0 0"  horiz-adv-x="1024" />

    
    <glyph glyph-name="shangxia" unicode="&#58998;" d="M799.188818 337.214854a72.936843 72.936843 0 0 0 54.222784-121.721353L566.222784-103.845109a72.936843 72.936843 0 0 0-103.007295-5.438274c-1.839416 1.679467-3.678832 3.518883-5.438273 5.438274L170.588398 215.493501a72.936843 72.936843 0 0 0 54.222784 121.721353zM566.222784 871.845109l287.188818-319.178661a72.936843 72.936843 0 0 0-54.222784-121.721353H224.811182a72.936843 72.936843 0 0 0-54.222784 121.721353L457.777216 871.845109a69.817833 69.817833 0 0 0 5.438273 5.438274A72.936843 72.936843 0 0 0 566.222784 871.845109z"  horiz-adv-x="1024" />

    
    <glyph glyph-name="shouyi" unicode="&#58999;" d="M366.90904 577.52h88a216.48 216.48 0 0 1 24.56-50.16l75.76-130 75.76 129.52A217.6 217.6 0 0 1 656.02904 577.52h88c-6.64-8.72-27.12-37.84-36.32-52.64l-70.48-112.64h28.64A269.68 269.68 0 0 1 720.02904 416v-58.4a276.88 276.88 0 0 1-53.76 4.08h-60.32l-16.88-26.56v-14.88h75.76a275.84 275.84 0 0 1 53.76 4.16v-58.4a275.84 275.84 0 0 1-53.76 4.08h-75.76v-34.8a398.56 398.56 0 0 1 4.08-65.52h-75.76a498.88 498.88 0 0 1 4.16 65.52V270.4h-77.36a272.4 272.4 0 0 1-53.68-4.08v58.4a271.36 271.36 0 0 1 53.68-4.16h77.36V336l-16.88 26.08h-59.44a270.24 270.24 0 0 1-53.76-4.08V416a266.72 266.72 0 0 1 53.76-4.08h28.64l-71.12 112.96c-14.8 22.96-28.16 42.96-35.84 52.64z m182.08-668.56a473.52 473.52 0 0 0-354.08 159.04l57.76 44.96a401.92 401.92 0 1 1-88 388.4l60.64 64a31.36 31.36 0 0 0 46.72 0.72 35.68 35.68 0 0 0-0.72-48.64L153.78904 393.92a32 32 0 0 0-32.88-8.64 32 32 0 0 0-34.72 16L4.42904 552a35.92 35.92 0 0 0 12 47.44 32 32 0 0 0 44.64-12.72l34.08-62.64a475.04 475.04 0 1 0 453.84-615.12z m0 0"  horiz-adv-x="1024" />

    
    <glyph glyph-name="shouhou" unicode="&#59000;" d="M930.64 318.72a107.04 107.04 0 0 0 5.2-26 37.92 37.92 0 0 0-13.04-30c-4.32-4.16-8-8-11.76-12.24s-6.4-7.04-9.12-9.76a60.16 60.16 0 0 0-9.12-8L782.32 342.16c5.28 4.32 11.04 9.68 17.52 16s11.92 10.72 16 14.4a41.44 41.44 0 0 0 34 11.44 80 80 0 0 0 30.16-8 102.24 102.24 0 0 0 27.92-22.8 120 120 0 0 0 22.96-34.48z m-456-284.8l16.8 16.96 32.48 32.56c13.04 12.96 27.44 27.52 42.96 43.52s31.2 32 46.88 47.6q56 56 126.08 124.88l108.96-109.2L722.72 64l-46.8-46.8-42.96-42.96c-12.08-12.24-22.16-22.4-30.48-31.36l-13.6-14.16c-4.32-3.44-9.12-7.04-14.24-11.04a111.04 111.04 0 0 0-16-9.76 247.2 247.2 0 0 0-24-9.76c-10.96-3.92-22.08-8-33.28-11.04s-22.08-6.72-32.48-9.12-18.16-4.56-23.36-5.28q-15.6-2.56-20.88 3.84a28.88 28.88 0 0 0-2.64 22.16c0.88 5.12 2.64 12.96 5.2 23.28s5.76 21.2 9.2 32 6.64 21.12 9.68 30.56 5.6 16 7.12 19.68a105.44 105.44 0 0 0 20.96 29.76z m370.32 780C844.8 859.28 801.52 896 756.24 896H176.64C131.36 896 88 859.28 88 813.92v-785.92c0-45.28 43.28-88.64 88.56-88.64H296l548.8 549.44zM448.88 250.32H238.16v54.24h210.72z m0 123.04H238.16v54.24h210.72zM694.8 496H238.16v54.64h456.64z m0 123.04H238.16v54.64h456.64z m0 0"  horiz-adv-x="1024" />

    
    <glyph glyph-name="tianjia" unicode="&#59001;" d="M512 896a512 512 0 1 1 512-512A512 512 0 0 1 512 896z m276-556.72H556.72v-231.2a44.72 44.72 0 1 0-89.44 0V339.2H236a44.72 44.72 0 0 0 0 89.44h231.28V659.92a44.72 44.72 0 0 0 89.44 0v-231.28H788a44.72 44.72 0 0 0 0-89.44z"  horiz-adv-x="1024" />

    
    <glyph glyph-name="shouye" unicode="&#59002;" d="M488.05072 856a34.4 34.4 0 0 0 48 0 33.84 33.84 0 0 0 0-48L58.05072 331.2a34.48 34.48 0 0 0-48 0 33.68 33.68 0 0 0 0 48z m0 0M488.05072 856.72a33.68 33.68 0 0 0 48 0l477.68-477.6a33.92 33.92 0 0 0-48-48L488.05072 808.72a34.48 34.48 0 0 0 0 48z m226.48-110.8a33.04 33.04 0 0 0 33.76 33.76h135.04a33.68 33.68 0 0 0 33.84-33.68 33.2 33.2 0 0 0-33.76-34H748.29072a33.76 33.76 0 0 0-33.76 33.76z m0 0M849.65072 746.64a33.84 33.84 0 0 0 33.76 33.76 33.36 33.36 0 0 0 24-9.68 32.8 32.8 0 0 0 9.68-24v-135.2a33.76 33.76 0 0 0-33.68-33.76 33.2 33.2 0 0 0-33.84 33.68v135.2zM106.61072 340.64a33.84 33.84 0 1 0 67.6 0v-405.28a33.84 33.84 0 1 0-67.6 0z m0 0M106.61072-64.64a33.04 33.04 0 0 0 33.76 33.76h270.32a33.76 33.76 0 0 0 33.68-33.68 33.2 33.2 0 0 0-9.6-24 33.52 33.52 0 0 0-24-9.68h-270.4a33.68 33.68 0 0 0-33.68 33.76z m472.88 0a33.04 33.04 0 0 0 33.76 33.76h270.24a33.68 33.68 0 0 0 33.68-33.68 32.96 32.96 0 0 0-33.68-33.84H613.25072a33.76 33.76 0 0 0-33.76 33.76z m0 0M376.85072 138.72a34.08 34.08 0 0 0 57.6 24 33.2 33.2 0 0 0 9.92-24V-64a33.84 33.84 0 0 0-33.68-33.04A33.04 33.04 0 0 0 376.85072-64V138.8z m0 0M376.85072 138a33.04 33.04 0 0 0 33.04 33.76h202.72a33.84 33.84 0 0 0 33.04-33.76A33.2 33.2 0 0 0 612.61072 104H409.89072a33.76 33.76 0 0 0-33.12 33.68z m0 0M579.49072 138.72a33.84 33.84 0 0 0 33.76 33.04 33.2 33.2 0 0 0 24-9.44 33.6 33.6 0 0 0 10-24V-64a33.92 33.92 0 0 0-33.84-33.04 33.2 33.2 0 0 0-33.92 33.04V138.8z m304 235.68a34.48 34.48 0 0 1-33.84-33.68v-405.36a33.76 33.76 0 0 1 67.52 0V340.64a34.4 34.4 0 0 1-33.68 33.76z m0 0"  horiz-adv-x="1024" />

    
    <glyph glyph-name="tuihuo" unicode="&#59003;" d="M427.36 844.08v-305.36h-343.2L231.2 844.08h196.16M478.24 894.96H199.28L3.12 488h475.12z m314.8-50.64l147.12-305.36h-343.2V844.32h196.08m32 50.96H546.08V488h475.12z m145.28-529.92v-441.12H54.08V365.36h916.24m50.88 50.64H3.12v-542.96h1018V416z m0 0M598.08 246.56H428.4v68L290.48 212.64l137.92-101.92v68h169.68a67.84 67.84 0 0 0 0-136h-33.92v-67.92h33.92a136 136 0 0 1 0 271.44z m-203.6-203.68h33.92v-67.84h-33.92z m0 0M462.32 42.88h67.84v-67.84h-67.84z"  horiz-adv-x="1024" />

    
    <glyph glyph-name="weizhifu" unicode="&#59004;" d="M1024.01504-0.8a104.56 104.56 0 0 0-7.36-39.28 98.96 98.96 0 0 0-20.8-32 97.84 97.84 0 0 0-71.04-29.28H106.01504A108.48 108.48 0 0 0 32.01504-72a102.08 102.08 0 0 0-23.12 32A91.68 91.68 0 0 0 0.01504-0.8V552a96.56 96.56 0 0 0 29.84 71.52 100.16 100.16 0 0 0 72.8 29.28h818.72a99.92 99.92 0 0 0 72.72-29.28A96 96 0 0 0 1024.01504 552v-150.64H768.01504a100.88 100.88 0 0 1-72.72-28.8 94.72 94.72 0 0 1-29.92-70.96 121.12 121.12 0 0 1 12.4-50.96A93.92 93.92 0 0 1 707.69504 216q20.88-15.2 60.32-15.2h256v-201.68zM870.65504 704h-512q60.96 31.04 115.04 59.84c31.6 16 62.8 32.56 93.6 48.72s54.88 28.8 72 37.76a137.36 137.36 0 0 0 70.48 19.36 160 160 0 0 0 52.64-10.8 140.88 140.88 0 0 0 42.88-32zM717.29504 301.6a48 48 0 0 0 14.64 35.52 52.4 52.4 0 0 0 72 0 48 48 0 0 0 14.64-35.52 49.68 49.68 0 0 0-14.64-36 50.96 50.96 0 0 0-72 0 49.68 49.68 0 0 0-14.64 36z m0 0"  horiz-adv-x="1024" />

    
    <glyph glyph-name="weixin" unicode="&#59005;" d="M512.96 895.04A511.04 511.04 0 1 1 1024 384 512 512 0 0 1 512.96 895.04zM421.76 264a352 352 0 0 0-76 11.36l-76-38L292.56 304c-55.12 38-87.36 87.36-87.36 148.16 0 104.72 98.8 186.4 218.8 186.4 108.24 0 201.36-64.56 220.32-153.84-8 0-13.28 1.84-20.88 1.84-104.48 0-186.16-77.84-186.16-172.88a128 128 0 0 1 8-45.6 48.64 48.64 0 0 0-22.8-3.76z m322.96-77.6l17.12-55.04-58.88 34.16a272.48 272.48 0 0 0-66.56-11.36C531.92 154.16 450.24 224 450.24 312s81.68 159.36 186.16 159.36c98.8 0 186.24-70.24 186.24-159.52 0-47.52-32-91.2-77.92-125.44z m0 0M319.2 516.96a30.4 30.4 0 1 1 30.4 30.4 30 30 0 0 1-30.4-30.4z m235.52-159.52a24.72 24.72 0 1 1 24.72 24.64 22.88 22.88 0 0 1-24.72-24.64zM473.04 516.96a30.4 30.4 0 1 1 30.4 30.4 30 30 0 0 1-30.4-30.4z m203.28-159.52a24.72 24.72 0 1 1 24.72 24.64 22.88 22.88 0 0 1-24.72-24.64z m0 0"  horiz-adv-x="1024" />

    
    <glyph glyph-name="tuandui" unicode="&#59006;" d="M129.6 574.4a192 192 0 0 0 194.32 190.4 192 192 0 0 0 194.32-190.4A192.4 192.4 0 0 0 323.92 384 192 192 0 0 0 129.6 574.4z m267.12-525.12v13.2a278.48 278.48 0 0 0 126.88 232.64 253.2 253.2 0 0 1-110.56 25.36H251.04C112.4 320.48 0 210.4 0 74.56v-16c0-55.52 112.4-55.52 251.04-55.52h154.88a111.36 111.36 0 0 0-9.2 46.08z m344.96 586.16a158.08 158.08 0 1 1 161.28-158.08 160 160 0 0 1-161.28 158.08z m0 0a158.08 158.08 0 1 1 161.28-158.08 160 160 0 0 1-161.28 158.08z m-60.4-368.88c-115.12 0-208-91.36-208-204.08v-13.2c0-46.08 93.28-46.08 208.4-46.08H816c115.12 0 208 1.68 208 46.08v13.2c0 112.72-93.2 204.08-208 204.08z m0 0"  horiz-adv-x="1024" />

    
    <glyph glyph-name="xia" unicode="&#59007;" d="M434.96 88L26.64 541.6A104 104 0 0 0 104 714.64h816a104 104 0 0 0 77.04-173.04l-408-453.6a86.96 86.96 0 0 0-8-8 104 104 0 0 0-146.4 8z"  horiz-adv-x="1024" />

    
    <glyph glyph-name="xiaoxi" unicode="&#59008;" d="M865.28-20.48H158.72A159.52 159.52 0 0 0 0 138.24V629.76a159.52 159.52 0 0 0 158.72 158.72h706.56A159.52 159.52 0 0 0 1024 629.76v-486.4c0-92.16-72-163.84-158.72-163.84zM158.72 701.44a78.72 78.72 0 0 1-76.8-76.8v-486.4a78.72 78.72 0 0 1 76.8-76.8h706.56a78.72 78.72 0 0 1 76.8 76.8V629.76a78.72 78.72 0 0 1-76.8 76.8H158.72z m0 0M532.48 328a122.32 122.32 0 0 0-72 25.6l-373.76 312a46.64 46.64 0 0 0-5.12 61.44 46.64 46.64 0 0 0 61.44 5.12l373.76-312a24.72 24.72 0 0 1 35.84 0l363.52 307.2c20.48 15.36 46.08 15.36 61.44-5.12a42.16 42.16 0 0 0-5.12-61.44l-363.2-307.52a115.68 115.68 0 0 0-76.8-25.6z m0 0"  horiz-adv-x="1024" />

    
    <glyph glyph-name="xuanzhong2" unicode="&#59009;" d="M401.90496 176l502.88 558.48a68.32 68.32 0 1 0 101.6-91.44L463.18496 40a72.64 72.64 0 0 0-5.04-6.32 68.08 68.08 0 0 0-96-5.28L22.62496 333.52a68.32 68.32 0 0 0 91.44 101.6z m0 0"  horiz-adv-x="1024" />

    
    <glyph glyph-name="xuanzhong3" unicode="&#59010;" d="M853.36 524.56l-372.64-362.4a57.76 57.76 0 0 0-79.04-0.56L174.08 380.56a56.88 56.88 0 0 0 77.92 81.92l188.88-180.32 330.56 323.68a57.68 57.68 0 1 0 81.92-81.28zM910.24 896H113.76A113.76 113.76 0 0 1 0 782.24v-796.48A113.76 113.76 0 0 1 113.76-128h796.48A113.76 113.76 0 0 1 1024-14.24V782.24A113.76 113.76 0 0 1 910.24 896z m0 0"  horiz-adv-x="1024" />

    
    <glyph glyph-name="xuanzhong4" unicode="&#59011;" d="M0-128h960.56a63.44 63.44 0 0 1 63.44 63.44V852.64z m902.8 372.08l-214.4-214.4a22.96 22.96 0 0 0-32.8 0l-32.88 32.88L514.08 168a34.88 34.88 0 0 0 49.36 49.36L656 128.48a22.96 22.96 0 0 1 32.8 0l164.96 165.04a34.96 34.96 0 1 0 49.44-49.44z m0 0"  horiz-adv-x="1024" />

    
    <glyph glyph-name="yiwancheng" unicode="&#59012;" d="M923.195599 895.98904H104.004367a68.479267 68.479267 0 0 1-68.319269-68.23927v-887.5105A68.479267 68.479267 0 0 1 104.004367-128h815.991266a68.479267 68.479267 0 0 1 68.23927 68.23927V827.74977A63.999315 63.999315 0 0 1 923.195599 895.98904z m-463.995034-266.23715l71.99923 129.678612 71.999229-129.678612 150.158393-27.279708-103.278895-105.838868 20.479781-146.798428-136.478539 61.439342-136.558539-61.439342 20.479781 146.798428-102.398904 105.838868zM615.998887 42.638174H172.243636v68.319268H615.998887z m238.877443 136.558538H172.243636v68.23927h679.27273v-68.23927z m0 0"  horiz-adv-x="1024" />

    
    <glyph glyph-name="yishiyong" unicode="&#59013;" d="M957.84 844.48a555.76 555.76 0 0 1-42.8 38.56h-112a501.04 501.04 0 0 0 220.56-249.68V765.92a555.28 555.28 0 0 1-65.44 78.56z m0 0M561.2-50.4A497.92 497.92 0 0 0 319.52 883.04h-112a573.36 573.36 0 0 1-42.72-38.56 561.28 561.28 0 0 1 177.92-913.76 561.6 561.6 0 0 1 436.96 0 561.84 561.84 0 0 1 178.32 120 574.48 574.48 0 0 1 65.44 78.4V262a498.88 498.88 0 0 0-462.24-312.4z m0 0M147.76 438.08a412.8 412.8 0 0 1 704.72-291.92 412.8 412.8 0 1 1-584 584 410 410 0 0 1-120.8-291.76z m412.64 390.4a390.4 390.4 0 1 0-390.24-390.4 390.8 390.8 0 0 0 390.24 390.4z m0 0M458.56 316.08l-32-17.12 6.72-12.48c5.12-8 2.88-14.24-6.4-18.4l-86.4-45.76a14.24 14.24 0 0 0-21.92 6.72l-26.8 50.24 95.12 50.64q36 16.8 13.6 54.4l-33.44 62.72-176.72-93.92 14.24-26.96 136 72.56 16-30.56a14.32 14.32 0 0 0-7.2-23.36l-72.56-38.64-10.56 19.68L224 302.96l53.44-100.48q18.24-38.64 54.16-17.28l121.12 64q35.04 16 16 48z m169.68 68.4a92.24 92.24 0 0 1-4.8 45.76l22.4 12c19.68 10.56 24 26.08 12 46.72l-24 45.84L584 508.48l-6.72 12.48 53.76 28.72-12.8 24-53.76-28.64-8 14.4L520 540l8-14.4-52.08-27.68a54.72 54.72 0 0 1-1.6 7.2 19.84 19.84 0 0 1-1.6 7.2l-36.8-19.52q19.68-56.4 3.84-83.04l12-22.4a93.2 93.2 0 0 1 14.24 14.4l64-120 35.04 18.56L483.2 453.44a264 264 0 0 1-5.44 38.56L488 473.12l53.04 28.16 6.72-12.48-51.12-27.2 41.04-77.12 49.28 26.24a43.12 43.12 0 0 0 3.68-19.84c-3.68 1.12-8 2.72-12.8 4.64l-39.52-20.96A280.96 280.96 0 0 1 584 357.6a122.4 122.4 0 0 0-21.04-29.6l12-22.48a304 304 0 0 1 41.92 48.88q39.12 2.4 104 28.96l-12.08 22.4q-51.36-22.8-80.8-21.28z m-69.28 41.44l-16 30.56L560 465.6l15.2-28.64 0.96-1.76z m60.16 32l-6.24-3.36-1.92 3.52-14.24 26.88 16 8.64L624 472.96c3.84-6.24 2.24-11.2-4.8-15.04z m306.24 75.36l-88 165.04-184-97.76 70.16-131.92c12.32-21.76 16-38.56 11.68-50.08l13.28-25.12c28 29.44 32 61.76 12.96 96.64l34.08 18.08 32.48-60.96 39.52 20.96-32 61.12 33.12 17.68 16-29.68a9.84 9.84 0 0 0-4.96-16.48l-6.24-3.36 12.8-25.44 25.12 13.28c20.56 10.88 25.2 26.88 14 48z m-204.08 35.44l-13.84 26.08 33.2 17.6 13.76-26.08z m27.68-52.08l-14.24 26.96 33.28 17.6 14.24-26.88z m44.96 90.64l-13.76 26.08 33.12 17.6 13.76-26.08z m27.68-52l-14.24 26.88 33.12 17.6 14.24-26.88z m0 0"  horiz-adv-x="1024" />

    
    <glyph glyph-name="yishiyong2" unicode="&#59014;" d="M202.97584 367.28q-38.08 9.36-27.68 44.4l26.32 98.32 32.8-8.8-5.2-19.36L328.01584 455.28 339.21584 496l-137.84 36.56 8 29.44 170.64-45.76-26.72-99.12-132 35.36-11.04-41.2a13.84 13.84 0 0 1 11.76-20.24l80-21.36c13.2-4.8 21.92-1.36 26.16 10.08a76.4 76.4 0 0 0 4.88 11.28c2.32 6.64 4.24 11.52 5.68 14.72 10.88-6.48 20.8-12.16 29.68-16.96a444.16 444.16 0 0 0-16-35.44c-8-16-23.2-20.48-46-13.76z m196.16-59.76l24 89.92c-7.2-6.48-14.16-12.4-21.04-17.76 2.24 15.04 4.08 29.52 5.44 43.6A346.4 346.4 0 0 1 465.29584 504l29.04-16a328 328 0 0 0-28.32-42l-39.2-146.16z m171.6-45.04a309.2 309.2 0 0 0-72.8 37.52 185.28 185.28 0 0 0-50.8-8l-11.68 30.16a155.12 155.12 0 0 1 38 0.64 265.6 265.6 0 0 0-15.2 27.44L480.01584 360l-17.68 4.72 19.12 71.44 50.48-13.52 3.6 13.44-53.84 14.4 7.04 26.08 53.76-14.48 5.2 19.36 31.04-8-5.12-19.36 55.44-14.88-6.96-26-56 15.04-3.6-13.44 51.28-13.68L592.01584 322.48l-28.56 8 1.76 6.72-24 6.56a82.8 82.8 0 0 0-17.84-29.44 231.52 231.52 0 0 1 66.4-27.76l-3.84-4.32a155.2 155.2 0 0 1-15.12-19.36z m-70.96 71.2a48.56 48.56 0 0 1 12.24 17.6l-29.44 8a97.2 97.2 0 0 1 17.52-25.44z m3.52 70.24l-6.08-22.64 21.84-5.92 6.08 22.72zM578.09584 384l-22.72 6.08-6.88-22.48 23.52-6.32z m61.04-143.36a35.6 35.6 0 0 0-5.76 5.12 233.92 233.92 0 0 1-18.72 17.6 108 108 0 0 1 24.56 31.28 268 268 0 0 1 16.48 48l25.2 94.08L856.01584 389.68l-43.04-160.48c-4.16-19.92-16-26.88-36.24-20.96-6.88 1.28-16.72 3.6-29.6 7.04 0.72 9.44 1.2 19.2 1.52 29.28 8-2.64 14.32-4.72 20-6.24 8.8-2.96 13.84-0.72 15.28 6.72l4.72 17.68-42 11.28-13.76-51.28-31.12 8 13.76 51.28-41.2 11.04a118.88 118.88 0 0 0-34.88-52.8z m48 93.52l-3.6-13.44 39.52-10.64 6.72 25.28-39.44 10.56zM704.01584 398.8l-6.72-25.28 39.44-10.56 7.28 25.2z m56-72l-6.72-25.2 42-11.28 6.72 25.28z m56 41.68l-42.08 11.28-5.92-25.12 42-11.28zM512.01584 616.88a232.4 232.4 0 0 0 187.2-94.4l29.68-8a253.28 253.28 0 0 1-339.44 91.04l29.68-8A232 232 0 0 0 512.01584 616.88z m152.88 13.12l16-13.12 5.04 19.68L704.01584 647.2l-18.16 10.64-5.04 19.76-16-13.2-21.28 1.6 8-18.8-8-18.72z m-281.92 44.16l-16.72 11.68-3.68-20.64-17.12-12.72 18.48-8.88 6.16-19.6 15.04 15.2 20.88 0.8-9.12 18.24 6.8 19.92z m156.48 28.48l-12.4 16-9.68-18.48-20.24-6.96L512.01584 679.36v-20.48l18.96 9.84 20.16-5.68-3.2 20.08 12.56 16.96z m226.56-127.12l-17.52 12.16-2.56-20.32-16.48-12 19.12-9.44 7.28-19.6 14.4 14.48h21.04l-10.32 18.4 5.68 19.52z m228-152.96L113.85584 658.4A40.56 40.56 0 0 1 64.01584 629.76L1.37584 395.04a40.56 40.56 0 0 1 28.64-49.6l880-235.84a40.56 40.56 0 0 1 49.6 28.64l62.88 234.72a40.48 40.48 0 0 1-28.64 49.6z m6.4-54.16l-57.6-215.12a30.32 30.32 0 0 0-37.2-21.44L45.05584 362.4A30.32 30.32 0 0 0 24.01584 399.6l57.6 215.12a30.32 30.32 0 0 0 37.2 21.44L978.97584 405.6a30.24 30.24 0 0 0 21.44-37.6zM512.01584 748.48a364.64 364.64 0 0 0 352-270.16l22.4-6A384.72 384.72 0 0 1 232.01584 648l22.4-6A363.04 363.04 0 0 0 512.01584 748.48z m92.88-578a232.72 232.72 0 0 0-280 75.04l-29.68 8a253.28 253.28 0 0 1 339.36-91.04zM387.69584 128l-16 13.12-4.96-19.68-18-10.56 18-10.64 4.96-19.68 16 13.12 21.12-1.6-8 18.8 8 18.72zM512.01584 66.08l12.32-16 9.68 18.48 20 6.88-14.8 14.08v20.24l-18.8-9.84-19.92 5.68 3.12-20.08-12.4-16.88z m-256 127.2l16.48-13.28 3.92 20 17.2 10.88-18.24 10.72-5.92 20-15.2-13.36-20.8 1.52 8.88-19.04-7.04-18.72z m256-173.76a364.64 364.64 0 0 0-352 270.16L137.45584 296A384.72 384.72 0 0 1 792.01584 120l-22.4 6A363.04 363.04 0 0 0 512.01584 19.52z m146.4 74.32l16.56-11.6 3.6 20.48 16.96 12.72-18.32 8.88-6.16 19.68L656.01584 128.72l-20.56-0.72 9.04-18.16-6.64-19.84z m0 0"  horiz-adv-x="1024" />

    
    <glyph glyph-name="yiguoqi" unicode="&#59015;" d="M512.02392 616.8a232 232 0 0 0 187.12-94.4l29.68-8a253.2 253.2 0 0 1-339.44 91.12l29.6-8A233.52 233.52 0 0 0 512.02392 616.8z m152.88 13.2l16-13.04 5.04 19.76L704.02392 647.36l-18.24 10.72-5.04 19.68-16-13.04-21.28 1.6 8-18.72-8-18.8z m-282 44.16l-16.72 11.6-3.76-20.64-17.12-12.8 18.48-8.88 6.16-19.44 15.12 15.2 20.96 0.8-9.12 18.24 6.88 20z m156.64 28.4l-12.4 16-9.76-18.56-20.16-6.96L512.02392 679.2v-20.48l18.88 9.92 20.16-5.68-3.12 20.08L560.02392 700z m226.48-126.96l-17.52 12.08-2.48-20.24-16.48-12.08 19.04-9.44 7.36-19.68 14.32 14.4h21.04l-10.24 18.4 5.68 19.6z m228-153.04l-880 235.76A40.56 40.56 0 0 1 64.02392 629.76L1.38392 395.04a40.48 40.48 0 0 1 28.64-49.6l880-235.76a40.48 40.48 0 0 1 50 28.56l62.88 234.72a40.4 40.4 0 0 1-28.56 49.6z m6.4-54.24l-57.6-215.12a30.4 30.4 0 0 0-37.2-21.44L45.14392 362.4A30.32 30.32 0 0 0 24.02392 399.6l57.6 215.12a30.48 30.48 0 0 0 37.2 21.44l860.24-230.64a30.24 30.24 0 0 0 21.36-37.52zM512.02392 748.56a364.64 364.64 0 0 0 352-270.16l22.48-6A384.88 384.88 0 0 1 232.02392 648l22.4-5.92A363.2 363.2 0 0 0 512.02392 748.56zM604.90392 170.4a232.56 232.56 0 0 0-280 75.12l-29.76 8a253.52 253.52 0 0 1 339.52-91.2zM387.78392 128l-16 13.12-5.04-19.76-18-10.72 18-10.64 5.04-19.76 16 13.12 21.12-1.52-8 18.72 8 18.72zM512.02392 66l12.24-16 9.68 18.4 20.08 6.96-14.72 14.08v20.32l-18.72-9.92-20 5.68 3.12-20.08-12.48-16.88zM256.02392 193.28l16.56-13.28 3.92 20 17.2 10.88-18.24 10.72-5.84 20-15.2-13.44-20.88 1.52 8.88-18.96-7.04-18.72z m256-173.84A364.8 364.8 0 0 0 160.02392 289.6l-22.48 6A384.88 384.88 0 0 1 792.02392 120l-22.32 5.92A363.2 363.2 0 0 0 512.02392 19.44z m146.4 74.4l16.64-11.6 3.6 20.48L696.02392 115.36l-18.32 8.88-6.56 19.76L656.02392 128.72l-20.8-0.64 9.04-18.16-6.64-19.92z m-316.56 312a288.56 288.56 0 0 1 29.76-20.96c-1.28-3.44-3.44-7.36-6-12.72-5.28-10-9.68-17.92-12.72-23.04-8-16-25.44-20.08-52-13.12l-91.84 24c-30.08 8-41.52 27.12-33.6 57.28l24 90.88 31.04-8-5.28-20.4L328.02392 452.08l11.76 44.56L200.02392 532.88l8 29.36 170.64-44.8-27.2-103.12-134.24 34.96-10.08-38.4c-3.92-14.4 1.36-23.12 14.88-26.72l79.04-20.48c14.4-3.04 23.12 0 26.72 8.4 1.76 3.92 4.32 10.96 8.4 20.4 2.72 6.08 4.4 10.48 5.68 13.12z m136-92.72c10.96-3.36 41.52-11.36 90.88-22.64 12.32-3.04 21.76-5.68 28.4-7.36a196.96 196.96 0 0 1-16.64-24c-45.04 11.44-84.48 22.32-118 32.4-21.36 5.68-35.36 16-41.52 29.76a174.88 174.88 0 0 1-31.44-18.32l-3.92 35.36a88.88 88.88 0 0 0 13.12 5.68 130.64 130.64 0 0 0 13.12 6.08L427.14392 408l-19.68 5.2 7.36 28.4L464.02392 429.12l-22.88-86.08a49.76 49.76 0 0 1 36.72-30.16z m-42.88 185.12l27.52 8c6.56-17.04 11.44-32 16-45.84-0.96-0.4-6.08-2.24-16.64-5.28l-14.4-3.92c-2.24 8-5.28 20.08-8.8 35.36a91.84 91.84 0 0 0-3.44 11.84z m42.08-83.12l28 11.76c4.32-8 11.76-24.48 23.04-49.76-8.72 20-8 18.32 1.36-5.28a90.32 90.32 0 0 1-8.4-3.44c-3.04-1.28-10.08-3.92-21.36-8.72-1.68 3.44-3.92 9.28-6.96 17.04-2.64 6.16-7.36 19.2-16 38.4z m91.68 25.36l9.28 34.48 31.04-8L600.02392 432l30.16-8-6.56-25.76-30.16 8L574.90392 336c-6.08-24-20.08-33.12-42-28.8-12.32 2.64-26.32 5.68-42.08 10.08a16 16 0 0 1 0 4.72 104 104 0 0 1 0.4 27.52c3.92-0.88 9.68-2.96 16.64-5.2a105.76 105.76 0 0 0 16.64-5.28c10.48-2.56 17.44 1.76 20.48 13.6l16 62.08-82.64 21.84 6.56 25.76zM776.02392 402.56l-6.56-24.96-11.36 3.04-24-90.08 11.36-3.04-6.56-25.84-32 8.4a200 200 0 0 0 17.04-29.36c14.4 11.04 26.24 35.44 36.24 73.52l25.36 96.88 79.12-20.4-45.44-173.44a19.84 19.84 0 0 0-25.36-16c-7.36 1.36-16.64 3.44-28 6.08v11.2a74.24 74.24 0 0 1 0 17.04 174.56 174.56 0 0 1 17.44-5.6 8.96 8.96 0 0 1 12.24 7.36l7.68 26.64-28.4 7.36a136 136 0 0 0-37.52-60.32l-3.92 3.92a123.04 123.04 0 0 1-13.12 16l-18.32-7.36a279.44 279.44 0 0 1-19.2 38.4l22.24 9.28-46.32 12.32L673.46392 264c-13.6-8-26.72-16.56-40-24.96-2.64 3.92-6 8.8-10.48 14.8-2.64 3.92-4.72 6.56-5.6 8a216.88 216.88 0 0 1 36.24 21.84l-29.28 8 6.48 25.76 17.2-4.64 24 90.08-14.4 3.92L664.02392 432l14.4-3.92 4.72 17.92 25.84-6.56-4.96-18.08 32-8.4 4.72 17.92 26.72-6.96-4.72-17.92zM680.02392 321.2l-3.92-15.36 32-8L712.02392 312.8z m9.68 37.12L685.54392 344l32-8 3.92 14.4z m10 37.6l-3.92-14.4 32-8 3.92 14.4zM783.30392 296l27.52-6.88 6.96 27.44-27.52 6.96c-2.16-8.64-4.24-17.92-6.96-27.52z m41.52 45.52l8 29.28-27.52 6.96-8-29.36z m0 0"  horiz-adv-x="1024" />

    
    <glyph glyph-name="youhuiquan" unicode="&#59016;" d="M865.28-20.48H158.72A159.52 159.52 0 0 0 0 138.24v179.2h102.4a62.24 62.24 0 0 1 61.44 61.44v15.36A62.24 62.24 0 0 1 102.4 456H0V629.76a159.52 159.52 0 0 0 158.72 158.72h706.56A159.52 159.52 0 0 0 1024 629.76v-179.2h-92.16a62.24 62.24 0 0 1-61.44-61.44v-15.36a62.24 62.24 0 0 1 61.44-61.76H1024v-179.2c0-81.92-72-153.6-158.72-153.6z m-788.48 256v-97.28a78.72 78.72 0 0 1 76.8-76.8h706.56a78.72 78.72 0 0 1 76.8 76.8V235.52h-15.36a137.68 137.68 0 0 0-138.24 138.24v15.36a137.68 137.68 0 0 0 138.24 138.24h15.36v102.4a78.72 78.72 0 0 1-76.8 76.8H158.72a78.72 78.72 0 0 1-76.8-76.8v-97.28h20.48a137.68 137.68 0 0 0 138.24-138.24v-15.36A137.68 137.68 0 0 0 102.4 240.64H76.8z m0 0M460.8 430.08l-66.56 87.04a31.52 31.52 0 0 0 5.12 35.84l5.12 5.12c10.24 10.24 25.6 5.12 35.84-5.12l66.56-87.04c10.24-10.24 5.12-25.6-5.12-35.84l-5.12-5.12c-10.24-10.24-25.6-5.12-35.84 5.12z m0 0M624.64 517.12L563.2 435.2a29.2 29.2 0 0 0-46.08 35.84l61.44 81.92a29.2 29.2 0 0 0 46.08-35.84z m0 0M609.28 399.36H414.72a24 24 0 0 0-25.6 25.6v5.12a24 24 0 0 0 25.6 25.6h194.56a24 24 0 0 0 25.6-25.6v-5.12a24 24 0 0 0-25.6-25.6z m0-97.28H414.72a24 24 0 0 0-25.6 25.6v5.12a24 24 0 0 0 25.6 25.6h194.56a24 24 0 0 0 25.6-25.6v-4.8a27.44 27.44 0 0 0-25.6-25.6z m0 0M517.12 204.8H512a24 24 0 0 0-25.6 25.6V409.6a24 24 0 0 0 25.6 25.6h10.24a24 24 0 0 0 25.6-25.6v-179.2c-5.12-15.36-15.36-25.6-30.72-25.6z m0 0"  horiz-adv-x="1024" />

    
    <glyph glyph-name="wode" unicode="&#59017;" d="M979.184087-98.080379s-4.079861-35.358796-57.758033-29.199006c-17.03942 1.919935-35.198801 29.199005-35.198801 29.199006C855.108313 101.192833 699.673607 252.787669 512 252.787669s-342.788324-151.594836-373.907264-350.868048a40.958605 40.958605 0 0 0-35.278798-29.199006c-65.597766-5.519812-57.678035 29.199005-57.678035 29.199006C51.135698 84.873389 168.81169 239.988105 334.326052 306.465841a321.589046 321.589046 0 1 0 355.667885 0c165.514362-66.077749 283.110357-221.592452 289.19015-404.54622zM746.072027 574.376715A233.912032 233.912032 0 1 1 512 340.464683 233.912032 233.912032 0 0 1 746.072027 574.376715z m0 0"  horiz-adv-x="1024" />

    
    <glyph glyph-name="xuanzhong" unicode="&#59018;" d="M512-128A512 512 0 1 1 0 384a512 512 0 0 1 512-512zM431.12 297.92l283.04 283.12a57.92 57.92 0 0 0 81.92-81.92L475.36 178.4a57.28 57.28 0 0 0-38.24-16.8 56.48 56.48 0 0 0-46.72 16L227.84 340.24a56.88 56.88 0 0 0 80.4 80.48z m0 0"  horiz-adv-x="1024" />

    


  </font>
</defs>
</svg>
